<svg width="82" height="82" viewBox="0 0 82 82" fill="none" xmlns="http://www.w3.org/2000/svg">
<path d="M54.8856 28.4117C54.8856 28.0594 54.5973 27.7711 54.245 27.7711L48.9598 27.7951L41 37.2844L33.0483 27.8032L27.7551 27.7791C27.4028 27.7791 27.1145 28.0594 27.1145 28.4198C27.1145 28.5719 27.1706 28.716 27.2666 28.8362L37.6848 41.2483L27.2666 53.6524C27.1699 53.7697 27.1162 53.9167 27.1145 54.0688C27.1145 54.4211 27.4028 54.7094 27.7551 54.7094L33.0483 54.6854L41 45.1961L48.9518 54.6774L54.237 54.7014C54.5893 54.7014 54.8776 54.4211 54.8776 54.0608C54.8776 53.9086 54.8215 53.7645 54.7254 53.6444L44.3233 41.2403L54.7414 28.8282C54.8375 28.716 54.8856 28.5639 54.8856 28.4117Z" fill="#F24E1E"/>
<path d="M41 5.20508C21.1887 5.20508 5.125 21.2688 5.125 41.0801C5.125 60.8914 21.1887 76.9551 41 76.9551C60.8113 76.9551 76.875 60.8914 76.875 41.0801C76.875 21.2688 60.8113 5.20508 41 5.20508ZM41 70.8691C24.552 70.8691 11.2109 57.5281 11.2109 41.0801C11.2109 24.632 24.552 11.291 41 11.291C57.448 11.291 70.7891 24.632 70.7891 41.0801C70.7891 57.5281 57.448 70.8691 41 70.8691Z" fill="#F24E1E"/>
</svg>
