<svg width="86" height="86" viewBox="0 0 86 86" fill="none" xmlns="http://www.w3.org/2000/svg">
<path opacity="0.5" d="M42.9999 7.16663C35.9127 7.16663 28.9847 9.26821 23.0919 13.2056C17.1992 17.1431 12.6063 22.7395 9.89417 29.2871C7.18203 35.8348 6.47241 43.0397 7.85505 49.9907C9.23768 56.9417 12.6505 63.3266 17.6619 68.338C22.6732 73.3493 29.0581 76.7621 36.0091 78.1448C42.9601 79.5274 50.165 78.8178 56.7127 76.1057C63.2604 73.3935 68.8568 68.8007 72.7942 62.9079C76.7316 57.0151 78.8332 50.0871 78.8332 43C78.8332 38.2943 77.9063 33.6346 76.1055 29.2871C74.3047 24.9396 71.6653 20.9894 68.3378 17.662C65.0104 14.3345 61.0602 11.6951 56.7127 9.89428C52.3652 8.09348 47.7056 7.16663 42.9999 7.16663V7.16663ZM42.9999 71.6666C37.3301 71.6666 31.7877 69.9854 27.0735 66.8354C22.3593 63.6855 18.685 59.2084 16.5153 53.9702C14.3456 48.7321 13.7779 42.9682 14.884 37.4074C15.9901 31.8466 18.7204 26.7387 22.7295 22.7296C26.7386 18.7205 31.8465 15.9902 37.4073 14.8841C42.9681 13.778 48.732 14.3457 53.9701 16.5154C59.2083 18.6851 63.6854 22.3594 66.8353 27.0736C69.9852 31.7878 71.6665 37.3302 71.6665 43C71.6665 50.6028 68.6463 57.8943 63.2702 63.2704C57.8942 68.6464 50.6027 71.6666 42.9999 71.6666V71.6666Z" fill="#4F4F4F"/>
<path d="M71.6667 43H78.8333C78.8333 38.2943 77.9065 33.6346 76.1057 29.2871C74.3049 24.9396 71.6654 20.9894 68.338 17.662C65.0106 14.3345 61.0603 11.6951 56.7128 9.89428C52.3653 8.09348 47.7057 7.16663 43 7.16663V14.3333C50.6029 14.3333 57.8944 17.3535 63.2704 22.7296C68.6464 28.1056 71.6667 35.3971 71.6667 43Z" fill="#4F4F4F"/>
</svg>
